<svg xmlns="http://www.w3.org/2000/svg" viewBox="0 0 1200 630">
  <defs>
    <linearGradient id="bgGrad" x1="0%" y1="0%" x2="100%" y2="100%">
      <stop offset="0%" style="stop-color:#eef2ff"/>
      <stop offset="50%" style="stop-color:#ffffff"/>
      <stop offset="100%" style="stop-color:#f5f3ff"/>
    </linearGradient>
    <linearGradient id="iconGrad" x1="0%" y1="0%" x2="100%" y2="100%">
      <stop offset="0%" style="stop-color:#6366f1"/>
      <stop offset="100%" style="stop-color:#8b5cf6"/>
    </linearGradient>
  </defs>
  
  <!-- Background -->
  <rect width="1200" height="630" fill="url(#bgGrad)"/>
  
  <!-- Decorative circles -->
  <circle cx="100" cy="100" r="200" fill="#6366f1" opacity="0.05"/>
  <circle cx="1100" cy="530" r="250" fill="#8b5cf6" opacity="0.05"/>
  <circle cx="900" cy="100" r="150" fill="#6366f1" opacity="0.03"/>
  
  <!-- Icon -->
  <g transform="translate(500, 140)">
    <rect width="100" height="100" rx="22" fill="url(#iconGrad)"/>
    <path d="M28 50h44M28 35h44M28 65h44" stroke="white" stroke-width="5" stroke-linecap="round" opacity="0.3"/>
    <path d="M34 35l6 6 12-12" stroke="white" stroke-width="4" stroke-linecap="round" stroke-linejoin="round" fill="none"/>
    <path d="M34 50l6 6 12-12" stroke="white" stroke-width="4" stroke-linecap="round" stroke-linejoin="round" fill="none"/>
    <circle cx="40" cy="68" r="4" fill="white" opacity="0.5"/>
  </g>
  
  <!-- Title -->
  <text x="600" y="320" text-anchor="middle" font-family="system-ui, -apple-system, sans-serif" font-size="56" font-weight="700" fill="#1f2937">
    Weekly Habits Planner
  </text>
  
  <!-- Subtitle -->
  <text x="600" y="380" text-anchor="middle" font-family="system-ui, -apple-system, sans-serif" font-size="28" fill="#6b7280">
    Build better habits with AI-powered personalization
  </text>
  
  <!-- Days of week -->
  <g transform="translate(200, 450)">
    <rect x="0" y="0" width="100" height="50" rx="10" fill="#6366f1"/>
    <text x="50" y="32" text-anchor="middle" font-family="system-ui, sans-serif" font-size="18" font-weight="600" fill="white">Mon</text>
    
    <rect x="120" y="0" width="100" height="50" rx="10" fill="#7c3aed"/>
    <text x="170" y="32" text-anchor="middle" font-family="system-ui, sans-serif" font-size="18" font-weight="600" fill="white">Tue</text>
    
    <rect x="240" y="0" width="100" height="50" rx="10" fill="#8b5cf6"/>
    <text x="290" y="32" text-anchor="middle" font-family="system-ui, sans-serif" font-size="18" font-weight="600" fill="white">Wed</text>
    
    <rect x="360" y="0" width="100" height="50" rx="10" fill="#a78bfa"/>
    <text x="410" y="32" text-anchor="middle" font-family="system-ui, sans-serif" font-size="18" font-weight="600" fill="white">Thu</text>
    
    <rect x="480" y="0" width="100" height="50" rx="10" fill="#8b5cf6"/>
    <text x="530" y="32" text-anchor="middle" font-family="system-ui, sans-serif" font-size="18" font-weight="600" fill="white">Fri</text>
    
    <rect x="600" y="0" width="100" height="50" rx="10" fill="#7c3aed"/>
    <text x="650" y="32" text-anchor="middle" font-family="system-ui, sans-serif" font-size="18" font-weight="600" fill="white">Sat</text>
    
    <rect x="720" y="0" width="100" height="50" rx="10" fill="#6366f1"/>
    <text x="770" y="32" text-anchor="middle" font-family="system-ui, sans-serif" font-size="18" font-weight="600" fill="white">Sun</text>
  </g>
  
  <!-- Bottom tagline -->
  <text x="600" y="570" text-anchor="middle" font-family="system-ui, -apple-system, sans-serif" font-size="20" fill="#9ca3af">
    Personalized daily habits for Mon-Sun based on your goals
  </text>
</svg>
